# xmcd
#
# Track frame offsets:
#	150
#	27174
#	45585
#	73054
#	93172
#	113604
#	144142
#	173526
#	193114
#	232622
#	248450
#	277503
#	306685
#	320820
#	336330
#
# Disc length: 4791 seconds
#
# Revision: 1
# Processed by: cddbd v1.5.1PL0 Copyright (c) Steve Scherf et al.
# Submitted via: audiograbber 1.83.01
#
DISCID=bf12b50f
DTITLE=Various Artist - Народный Dj (2004)
DYEAR=1900
DGENRE=
TTITLE0=Dj Max. - No Groove, No Roman.
TTITLE1=Dj Skydreamer. - Under Attack.
TTITLE2=Dj Flash and Freza. - Bass Boost.
TTITLE3=Motor. - Love The Stars.
TTITLE4=Секвенция. - Dance Tonight. (Radio Mix)
TTITLE5=Arrival Project and Dj Шмель. - Cowboy's Don't Cry.
TTITLE6=Dj Max. - Funny.
TTITLE7=Doilouros. - In To The Light.
TTITLE8=Космонавтика. - Junior.
TTITLE9=Leonardo DK. - It's A Dream.
TTITLE10=Dj Grom. - Club Works.
TTITLE11=Dj Astral. - Let's Make Some Noise.
TTITLE12=Patriot Games. - The Love.
TTITLE13=Никчемный Блэб. - Seasons.
TTITLE14=TransFormator. - Reflection. (Internal Front Rmx)
EXTD=
EXTT0=
EXTT1=
EXTT2=
EXTT3=
EXTT4=
EXTT5=
EXTT6=
EXTT7=
EXTT8=
EXTT9=
EXTT10=
EXTT11=
EXTT12=
EXTT13=
EXTT14=
PLAYORDER=
